# xmcd CD database file
#
# Track frame offsets:
#	150
#	16452
#	32840
#	45282
#	62757
#	78985
#	87390
#	100445
#	115160
#
# Disc length: 1747 seconds
#
# Revision: 1
# Processed by: cddbd v1.5.1PL2 Copyright (c) Steve Scherf et al.
# Submitted via: CDex 1.51
#
DISCID=6a06d109
DTITLE=Elements - Heavenly Voices
DYEAR=2002
DGENRE=New Age
TTITLE0=Orinoco Flow
TTITLE1=Caribbean Blue
TTITLE2=Theme From Harry's Game
TTITLE3=Anywhere Is
TTITLE4=Only Time
TTITLE5=I Will Find You
TTITLE6=Book Of Days
TTITLE7=Only If
TTITLE8=May It Be
EXTD=YEAR: 2002
EXTT0=
EXTT1=
EXTT2=
EXTT3=
EXTT4=
EXTT5=
EXTT6=
EXTT7=
EXTT8=
PLAYORDER=
